<svg width="70" height="47" viewBox="0 0 70 47" fill="none" xmlns="http://www.w3.org/2000/svg">
<path d="M70 0H0V47H70V0Z" fill="#ED5565"/>
<path d="M28.2 0H0V47H28.2V0Z" fill="#57A863"/>
<path fill-rule="evenodd" clip-rule="evenodd" d="M37.3927 30.7897C33.843 30.6828 17.5657 20.5225 17.4541 18.9046L18.3529 17.4056C19.9675 19.7516 36.6077 29.6327 38.2422 29.2825L37.3926 30.7892" fill="#F6D660"/>
<path d="M37.3927 30.7897C33.843 30.6828 17.5657 20.5225 17.4541 18.9046L18.3529 17.4056C19.9675 19.7516 36.6077 29.6327 38.2422 29.2825L37.3926 30.7892" stroke="#434A54" stroke-width="0.0673275" stroke-linecap="round" stroke-linejoin="round"/>
<path fill-rule="evenodd" clip-rule="evenodd" d="M18.1636 17.202C17.8452 18.059 22.4111 20.8819 27.9047 24.2231C33.3981 27.5641 38.1349 29.6288 38.486 29.3327C38.5074 29.2945 38.6587 29.0342 38.6448 29.0362C38.579 29.1354 38.4188 29.1667 38.1689 29.0947C36.6847 28.6666 32.8138 26.8898 28.0199 23.9827C23.2262 21.0754 19.0554 18.3963 18.4071 17.258C18.3621 17.1791 18.3299 17.0352 18.3365 16.9232L18.3207 16.923L18.1827 17.1643L18.1637 17.2021L18.1636 17.202ZM37.4759 30.8367C37.4157 30.9459 37.3035 30.9496 37.0903 30.9261C35.7626 30.7792 31.7336 28.8199 26.9663 25.9661C21.4191 22.6456 16.8378 19.6199 17.3348 18.8292L17.4701 18.5901L17.4967 18.5984C17.0498 19.9385 26.5381 25.3638 27.0967 25.7097C32.5867 29.111 37.2152 31.0972 37.6248 30.581L37.4758 30.8373V30.8371L37.4759 30.8367Z" fill="#F6D660" stroke="#434A54" stroke-width="0.0673275" stroke-linecap="round" stroke-linejoin="round"/>
<path fill-rule="evenodd" clip-rule="evenodd" d="M28.2194 19.8845C31.7723 19.8564 36.1565 19.399 38.6796 18.3934L38.136 17.5102C36.6447 18.3356 32.2363 18.8784 28.1894 18.9596C23.4029 18.9155 20.0243 18.4698 18.3315 17.334L17.8184 18.2745C20.9302 19.5913 24.119 19.8709 28.2194 19.8845Z" fill="#F6D660" stroke="#434A54" stroke-width="0.0673275" stroke-linecap="round" stroke-linejoin="round"/>
<path fill-rule="evenodd" clip-rule="evenodd" d="M38.8259 18.4134C38.7391 18.5523 37.0936 19.1198 34.6696 19.5385C33.026 19.7891 30.8821 20.0033 28.2066 20.0059C25.6647 20.0083 23.5883 19.8273 22.0162 19.6143C19.4717 19.2153 18.1584 18.6602 17.6729 18.464C17.7193 18.3717 17.7491 18.3069 17.7939 18.2207C19.1916 18.7772 20.511 19.1127 22.0567 19.3505C23.6184 19.562 25.6698 19.7456 28.1991 19.7432C30.8621 19.7405 32.9824 19.51 34.6165 19.2669C37.1022 18.866 38.46 18.35 38.6507 18.1104L38.8263 18.4134H38.826H38.8259ZM38.3488 17.5178C38.0794 17.7342 36.737 18.2102 34.3751 18.5874C32.7988 18.8133 30.7946 19.0155 28.234 19.018C25.8012 19.0204 23.8137 18.8564 22.302 18.6362C19.9033 18.323 18.6267 17.7579 18.1664 17.5931C18.2122 17.5139 18.2589 17.4354 18.3067 17.3565C18.6649 17.5368 19.8969 18.037 22.3283 18.3814C23.8229 18.5933 25.8135 18.7513 28.2341 18.7488C30.7827 18.7462 32.7641 18.5401 34.3303 18.3154C36.7044 17.9888 37.9819 17.3816 38.1759 17.2296L38.3489 17.5176L38.3488 17.5178Z" fill="#F6D660" stroke="#434A54" stroke-width="0.0673275" stroke-linecap="round" stroke-linejoin="round"/>
<path fill-rule="evenodd" clip-rule="evenodd" d="M16.5532 24.1651C18.7385 25.3404 23.5921 25.9327 28.185 25.9735C32.367 25.9801 37.8151 25.3271 39.8524 24.2474L39.7964 23.071C39.159 24.0671 33.3206 25.0226 28.1397 24.9834C22.9587 24.9444 18.1477 24.1442 16.5439 23.1083L16.5533 24.1648" fill="#F6D660"/>
<path d="M16.5532 24.1651C18.7385 25.3404 23.5921 25.9327 28.185 25.9735C32.367 25.9801 37.8151 25.3271 39.8524 24.2474L39.7964 23.071C39.159 24.0671 33.3206 25.0226 28.1397 24.9834C22.9587 24.9444 18.1477 24.1442 16.5439 23.1083L16.5533 24.1648" stroke="#434A54" stroke-width="0.0673275" stroke-linecap="round" stroke-linejoin="round"/>
<path fill-rule="evenodd" clip-rule="evenodd" d="M39.9636 23.9959L39.9637 24.2764C39.6575 24.6425 37.7375 25.1959 35.3298 25.5856C33.4974 25.8665 31.1084 26.0784 28.1315 26.0784C25.3034 26.0784 23.0481 25.8768 21.2991 25.6083C18.5345 25.2057 16.7661 24.5007 16.4111 24.2903L16.4127 23.963C17.479 24.6719 20.3679 25.1905 21.3379 25.3493C23.0755 25.616 25.3174 25.8161 28.1314 25.8161C31.0943 25.8161 33.4699 25.6057 35.2908 25.3266C37.0182 25.077 39.479 24.4281 39.9634 23.996L39.9636 23.9959ZM39.9647 22.998L39.9648 23.2786C39.6586 23.6445 37.7387 24.1978 35.331 24.5875C33.4986 24.8685 31.1096 25.0804 28.1327 25.0804C25.3046 25.0804 23.0493 24.8789 21.3003 24.6102C18.5357 24.2078 16.7673 23.5028 16.4123 23.2923L16.4139 22.9651C17.4801 23.6739 20.369 24.1926 21.3391 24.3511C23.0767 24.618 25.3186 24.8182 28.1326 24.8182C31.0955 24.8182 33.4711 24.6077 35.292 24.3284C37.0194 24.0789 39.4802 23.4299 39.9646 22.9978L39.9647 22.998Z" fill="#F6D660" stroke="#434A54" stroke-width="0.0673275" stroke-linecap="round" stroke-linejoin="round"/>
<path fill-rule="evenodd" clip-rule="evenodd" d="M28.1749 30.5876C23.1492 30.5576 18.8429 29.2177 17.9336 28.9962L18.5967 30.0342C20.2029 30.7099 24.404 31.7168 28.2231 31.6053C32.0423 31.4939 35.38 31.1981 37.7321 30.053L38.412 28.9772C36.8091 29.7322 31.3541 30.5798 28.1749 30.5876Z" fill="#F6D660" stroke="#434A54" stroke-width="0.0673275" stroke-linecap="round" stroke-linejoin="round"/>
<path fill-rule="evenodd" clip-rule="evenodd" d="M37.9874 29.8121C37.8875 29.9648 37.7856 30.1155 37.6823 30.2621C36.5729 30.6533 34.8248 31.064 34.0872 31.1837C32.5803 31.4942 30.249 31.7235 28.18 31.7246C23.7279 31.6594 20.0836 30.7879 18.3692 30.0445L18.2308 29.8066L18.2534 29.7709L18.488 29.8619C21.5369 30.9527 24.9612 31.3878 28.2051 31.466C30.2658 31.4732 32.3287 31.2298 33.9969 30.9314C36.555 30.4189 37.5893 30.0326 37.9067 29.8574L37.9874 29.8121ZM38.5769 28.8398C38.5795 28.8428 38.5821 28.8457 38.5846 28.8489C38.5099 28.975 38.4329 29.1033 38.354 29.2322C37.7623 29.4437 36.1565 29.9136 33.8116 30.2415C32.2666 30.4519 31.3062 30.6558 28.2328 30.7154C22.4735 30.5689 18.7447 29.4428 17.8588 29.165L17.7275 28.9132C21.0652 29.7845 24.4746 30.3928 28.233 30.4549C31.0449 30.395 32.2411 30.188 33.7733 29.9791C36.5077 29.5539 37.8854 29.1037 38.2988 28.9738C38.2937 28.9663 38.2876 28.9584 38.2807 28.9503L38.5772 28.8396L38.5769 28.8398Z" fill="#F6D660" stroke="#434A54" stroke-width="0.064625" stroke-linecap="round" stroke-linejoin="round"/>
<path fill-rule="evenodd" clip-rule="evenodd" d="M38.6371 23.2368C38.6534 26.5429 36.9616 29.5097 35.5988 30.8185C33.6708 32.6702 31.1146 33.8613 28.1294 33.9161C24.796 33.9774 21.6528 31.8042 20.8098 30.8495C19.1615 28.983 17.8195 26.6128 17.7765 23.4185C17.9807 19.8101 19.3972 17.2967 21.4505 15.5731C23.5038 13.8495 26.2378 13.0101 28.5147 13.0701C31.1418 13.1394 34.2105 14.4282 36.3309 16.9866C37.7201 18.6629 38.3217 20.482 38.6371 23.2368ZM28.1577 11.9166C34.5597 11.9166 39.825 17.1263 39.825 23.5142C39.825 29.902 34.5597 35.1119 28.1577 35.1119C21.7558 35.1119 16.5342 29.9021 16.5342 23.5142C16.5342 17.1263 21.7558 11.9166 28.1577 11.9166Z" fill="#F6D660" stroke="#434A54" stroke-width="0.0673275" stroke-linecap="round" stroke-linejoin="round"/>
<path fill-rule="evenodd" clip-rule="evenodd" d="M28.1895 11.8769C34.5972 11.8769 39.8232 17.1037 39.8232 23.512C39.8232 29.9202 34.5971 35.1468 28.1895 35.1468C21.7817 35.1468 16.5557 29.9203 16.5557 23.512C16.5557 17.1037 21.7818 11.8769 28.1895 11.8769ZM16.8117 23.512C16.8117 29.7701 21.9507 34.891 28.1895 34.891C34.4284 34.891 39.5673 29.7701 39.5673 23.512C39.5673 17.2538 34.4282 12.1329 28.1895 12.1329C21.9507 12.1329 16.8117 17.254 16.8117 23.512Z" fill="#F6D660" stroke="#434A54" stroke-width="0.0673275" stroke-linecap="round" stroke-linejoin="round"/>
<path fill-rule="evenodd" clip-rule="evenodd" d="M28.1984 12.8439C34.0418 12.8439 38.8548 17.6404 38.8548 23.5017C38.8548 29.363 34.0417 34.1593 28.1984 34.1593C22.3551 34.1593 17.542 29.363 17.542 23.5017C17.542 17.6404 22.3553 12.8439 28.1984 12.8439ZM17.7979 23.5016C17.7979 29.2221 22.4954 33.9032 28.1984 33.9032C33.9014 33.9032 38.5989 29.2221 38.5989 23.5016C38.5989 17.781 33.9015 13.0999 28.1984 13.0999C22.4954 13.0999 17.7979 17.781 17.7979 23.5016Z" fill="#F6D660" stroke="#434A54" stroke-width="0.0673275" stroke-linecap="round" stroke-linejoin="round"/>
<path fill-rule="evenodd" clip-rule="evenodd" d="M28.667 11.8299H27.6699L27.6711 35.2077H28.6716L28.667 11.8299Z" fill="#F6D660" stroke="#434A54" stroke-width="0.0673275" stroke-linecap="round" stroke-linejoin="round"/>
<path fill-rule="evenodd" clip-rule="evenodd" d="M28.5676 11.6967H28.8214L28.8236 35.3435H28.5696L28.5676 11.6967ZM27.5781 11.6969H27.8339L27.8342 35.3437H27.5783V11.6969H27.5781Z" fill="#F6D660" stroke="#434A54" stroke-width="0.0673275" stroke-linecap="round" stroke-linejoin="round"/>
<path fill-rule="evenodd" clip-rule="evenodd" d="M39.831 23.9624V23.0981L39.1271 22.4425L35.1321 21.385L29.3746 20.7975L22.4421 21.15L17.5071 22.325L16.5107 23.0629V23.9273L19.0346 22.795L25.0271 21.855H30.7846L35.0146 22.325L37.9521 23.03L39.831 23.9624Z" fill="#F6D660" stroke="#434A54" stroke-width="0.0673275" stroke-linecap="round" stroke-linejoin="round"/>
<path fill-rule="evenodd" clip-rule="evenodd" d="M28.1938 21.7105C30.9413 21.7054 33.607 21.9708 35.7214 22.3825C37.9033 22.8187 39.4387 23.3643 39.9637 23.9771L39.9631 24.2805C39.33 23.5179 37.2638 22.9589 35.6723 22.6393C33.574 22.2311 30.9261 21.9676 28.1938 21.9726C25.3105 21.978 22.6258 22.2511 20.5581 22.6545C18.899 22.9837 16.6864 23.6377 16.4102 24.2828V23.9669C16.5619 23.5203 18.2094 22.8531 20.5208 22.3904C22.6039 21.9841 25.2936 21.7157 28.1938 21.7105ZM28.1949 20.7126C30.9424 20.7077 33.6082 20.9732 35.7226 21.3847C37.9044 21.8211 39.4399 22.3665 39.9649 22.9793L39.9643 23.2827C39.3312 22.5203 37.265 21.9612 35.6735 21.6417C33.5751 21.2333 30.9273 20.9698 28.1949 20.975C25.3117 20.9802 22.64 21.2535 20.5721 21.6567C18.9711 21.9602 16.6681 22.6401 16.4112 23.2852V22.9691C16.5629 22.5274 18.2439 21.8362 20.522 21.3926C22.6051 20.9864 25.2948 20.7181 28.1949 20.7126Z" fill="#F6D660" stroke="#434A54" stroke-width="0.0673275" stroke-linecap="round" stroke-linejoin="round"/>
<path fill-rule="evenodd" clip-rule="evenodd" d="M28.1385 15.6228C32.4683 15.6012 36.2449 16.2282 37.9727 17.1133L38.6029 18.2036C37.1012 17.3942 33.0269 16.5527 28.1449 16.6786C24.167 16.703 19.9167 17.1165 17.7842 18.2542L18.5366 16.9959C20.2868 16.0883 24.4142 15.6279 28.1387 15.623" fill="#F6D660"/>
<path d="M28.1385 15.6228C32.4683 15.6012 36.2449 16.2282 37.9727 17.1133L38.6029 18.2036C37.1012 17.3942 33.0269 16.5527 28.1449 16.6786C24.167 16.703 19.9167 17.1165 17.7842 18.2542L18.5366 16.9959C20.2868 16.0883 24.4142 15.6279 28.1387 15.623" stroke="#434A54" stroke-width="0.0673275" stroke-linecap="round" stroke-linejoin="round"/>
<path fill-rule="evenodd" clip-rule="evenodd" d="M28.1962 16.5229C30.6657 16.5163 33.0519 16.6556 34.9496 16.998C36.7169 17.3269 38.4023 17.8206 38.6433 18.0861L38.8302 18.4163C38.2441 18.0336 36.7856 17.6074 34.9128 17.2523C33.0321 16.8988 30.6476 16.7817 28.1918 16.7882C25.4045 16.7786 23.239 16.9258 21.3805 17.2498C19.415 17.6176 18.0512 18.143 17.7148 18.3927L17.8979 18.0436C18.5516 17.7102 19.5888 17.3082 21.3316 16.9944C23.2536 16.6433 25.4421 16.538 28.1963 16.5229L28.1962 16.5229ZM28.1951 15.526C30.5584 15.5198 32.8918 15.6515 34.7107 15.9784C36.1453 16.2577 37.564 16.6937 38.0835 17.0816L38.3567 17.5159C37.8922 16.9995 36.1435 16.5101 34.5998 16.236C32.7949 15.9247 30.5584 15.8015 28.1951 15.7818C25.7149 15.7888 23.4228 15.9407 21.6442 16.2645C19.9474 16.5874 18.8524 16.9697 18.3891 17.2683L18.6294 16.9056C19.2688 16.569 20.3017 16.2599 21.6025 16.0071C23.3943 15.6809 25.7004 15.5329 28.1951 15.526Z" fill="#F6D660" stroke="#434A54" stroke-width="0.0673275" stroke-linecap="round" stroke-linejoin="round"/>
<path fill-rule="evenodd" clip-rule="evenodd" d="M33.9752 28.3481C31.8345 27.9485 29.69 27.8904 28.1922 27.9081C20.9768 27.9926 18.646 29.3896 18.3615 29.8126L17.8223 28.9335C19.6593 27.602 23.5883 26.8553 28.2312 26.9317C30.6421 26.9712 32.7226 27.1313 34.4727 27.4703L33.975 28.3483" fill="#F6D660"/>
<path d="M33.9752 28.3481C31.8345 27.9485 29.69 27.8904 28.1922 27.9081C20.9768 27.9926 18.646 29.3896 18.3615 29.8126L17.8223 28.9335C19.6593 27.602 23.5883 26.8553 28.2312 26.9317C30.6421 26.9712 32.7226 27.1313 34.4727 27.4703L33.975 28.3483" stroke="#434A54" stroke-width="0.0673275" stroke-linecap="round" stroke-linejoin="round"/>
<path fill-rule="evenodd" clip-rule="evenodd" d="M28.15 27.7841C30.1571 27.814 32.1273 27.8969 34.0289 28.2515L33.8912 28.4946C32.125 28.1686 30.2422 28.0438 28.1568 28.054C25.4939 28.0332 22.8006 28.2819 20.4558 28.9549C19.7159 29.1608 18.491 29.6364 18.3661 30.0295L18.2291 29.8036C18.2686 29.5713 19.0089 29.0891 20.3928 28.7002C23.0786 27.9311 25.5909 27.8015 28.15 27.7839L28.15 27.7841ZM28.2411 26.774C30.3206 26.8129 32.4681 26.909 34.5555 27.3225L34.4121 27.5756C32.5272 27.2014 30.7263 27.0766 28.2534 27.0386C25.582 27.0434 22.7484 27.2339 20.1719 27.9829C19.3401 28.2252 17.9045 28.7491 17.8567 29.1638L17.7197 28.9211C17.7509 28.5444 18.9937 28.053 20.1118 27.7278C22.7081 26.9729 25.549 26.7789 28.2411 26.774Z" fill="#F6D660" stroke="#434A54" stroke-width="0.064625" stroke-linecap="round" stroke-linejoin="round"/>
<path fill-rule="evenodd" clip-rule="evenodd" d="M38.4905 29.0672L37.6235 30.4124L35.1324 28.2L28.6699 23.8525L21.3849 19.8575L17.6025 18.5638L18.4086 17.0692L18.6824 16.92L21.0324 17.5075L28.7874 21.5025L33.2524 24.3225L37.0124 27.025L38.5399 28.7875L38.4905 29.0672Z" fill="#F6D660" stroke="#434A54" stroke-width="0.0673275" stroke-linecap="round" stroke-linejoin="round"/>
<path fill-rule="evenodd" clip-rule="evenodd" d="M17.4659 18.5991C18.1293 18.1491 23.0047 20.321 28.1061 23.3971C33.1939 26.4819 38.0556 29.9678 37.6167 30.6202L37.4724 30.8472L37.4062 30.8994C37.4204 30.8893 37.4935 30.7998 37.399 30.558C37.1823 29.8447 33.7336 27.0928 28.0115 23.6378C22.4332 20.3115 17.7842 18.3067 17.3193 18.8798L17.4659 18.5991ZM38.6676 29.048C39.087 28.2194 34.5649 24.8128 28.9583 21.496C23.2228 18.2453 19.089 16.3318 18.3339 16.9024L18.1662 17.2078C18.1647 17.2246 18.1723 17.1869 18.2077 17.1596C18.345 17.0398 18.5726 17.0479 18.6753 17.046C19.9754 17.0655 23.6887 18.7743 28.8985 21.7611C31.1813 23.0906 38.5418 27.8112 38.5137 29.1388C38.5157 29.2529 38.5232 29.2764 38.4803 29.3329L38.6676 29.048Z" fill="#F6D660"/>
<path d="M38.6676 29.048C39.087 28.2194 34.5649 24.8128 28.9583 21.496C23.2228 18.2453 19.089 16.3318 18.3339 16.9024L18.1662 17.2078C18.1647 17.2246 18.1723 17.1869 18.2077 17.1596C18.345 17.0398 18.5726 17.0479 18.6753 17.046C19.9754 17.0655 23.6887 18.7743 28.8985 21.7611C31.1813 23.0906 38.5418 27.8112 38.5137 29.1388C38.5157 29.2529 38.5232 29.2764 38.4803 29.3329L38.6676 29.048ZM38.6676 29.048L38.6675 29.0478M17.4659 18.5991C18.1293 18.1491 23.0047 20.321 28.1061 23.3971C33.1939 26.4819 38.0556 29.9678 37.6167 30.6202L37.4724 30.8472L37.4062 30.8994C37.4204 30.8893 37.4935 30.7998 37.399 30.558C37.1823 29.8447 33.7336 27.0928 28.0115 23.6378C22.4332 20.3115 17.7842 18.3067 17.3193 18.8798L17.4659 18.5991Z" stroke="#434A54" stroke-width="0.0673275" stroke-linecap="round" stroke-linejoin="round"/>
<path d="M21.2204 24.7937C21.2204 26.7055 22.0033 28.4346 23.2716 29.6983C24.5424 30.9648 26.2693 31.7639 28.1841 31.7639C30.1089 31.7639 31.8557 30.9822 33.121 29.7207C34.3864 28.4593 35.1706 26.7183 35.1709 24.7998H35.1707V15.4951L21.2188 15.4785L21.2202 24.7936L21.2204 24.7937Z" fill="#F5F7FA" stroke="#434A54" stroke-width="0.0787685"/>
<path d="M21.4816 24.8066V24.8119C21.4816 26.6398 22.2385 28.3044 23.4527 29.5129C24.6693 30.7238 26.3449 31.4766 28.1779 31.4766C30.0204 31.4766 31.6925 30.7292 32.9039 29.523C34.1151 28.3169 34.8658 26.6522 34.8661 24.8179H34.8658V15.7908L21.4896 15.7886L21.4814 24.8065M32.1765 18.4913L32.177 24.2359L32.1721 24.8436C32.1721 25.0035 32.1626 25.1858 32.1439 25.341C32.0352 26.2492 31.6175 27.0409 30.9989 27.6567C30.2747 28.3777 29.2751 28.8248 28.1734 28.8248C27.0775 28.8248 26.1008 28.3621 25.3735 27.6381C24.6274 26.8955 24.1949 25.8772 24.1949 24.8243L24.1934 18.4766L32.1763 18.491L32.1765 18.4913Z" fill="#ED5565"/>
<path d="M21.4816 24.8066V24.8119C21.4816 26.6398 22.2385 28.3044 23.4527 29.5129C24.6693 30.7238 26.3449 31.4766 28.1779 31.4766C30.0204 31.4766 31.6925 30.7292 32.9039 29.523C34.1151 28.3169 34.8658 26.6522 34.8661 24.8179H34.8658V15.7908L21.4896 15.7886L21.4814 24.8065M32.1765 18.4913L32.177 24.2359L32.1721 24.8436C32.1721 25.0035 32.1626 25.1858 32.1439 25.341C32.0352 26.2492 31.6175 27.0409 30.9989 27.6567C30.2747 28.3777 29.2751 28.8248 28.1734 28.8248C27.0775 28.8248 26.1008 28.3621 25.3735 27.6381C24.6274 26.8955 24.1949 25.8772 24.1949 24.8243L24.1934 18.4766L32.1763 18.491L32.1765 18.4913Z" stroke="#434A54" stroke-width="0.0596124"/>
<path d="M22.3467 18.1455C22.3625 17.4968 22.8228 17.3432 22.8261 17.3409C22.8295 17.3388 23.3233 17.5063 23.3217 18.1515L22.3467 18.1455Z" fill="#F6D660" stroke="#434A54" stroke-width="0.05875"/>
<path d="M21.9502 17.3536L21.8701 18.0991L22.3566 18.1001C22.3613 17.4833 22.8236 17.3807 22.8348 17.383C22.8452 17.3824 23.3035 17.5194 23.3157 18.1001H23.8034L23.7153 17.3489L21.9503 17.3534L21.9502 17.3536Z" fill="#F6D660" stroke="#434A54" stroke-width="0.05875"/>
<path d="M21.837 18.1021H23.8282C23.8701 18.1021 23.9044 18.1435 23.9044 18.1942C23.9044 18.2447 23.8701 18.286 23.8282 18.286H21.837C21.795 18.286 21.7607 18.2447 21.7607 18.1942C21.7607 18.1435 21.795 18.1021 21.837 18.1021Z" fill="#F6D660" stroke="#434A54" stroke-width="0.05875"/>
<path d="M22.5605 18.0985C22.5627 17.7093 22.8263 17.5991 22.8277 17.5993C22.8278 17.5993 23.1029 17.7129 23.1051 18.0985H22.5605Z" fill="#F6D660" stroke="#434A54" stroke-width="0.05875"/>
<path d="M21.8788 17.0434H23.7876C23.8278 17.0434 23.8608 17.0808 23.8608 17.1262C23.8608 17.1717 23.8278 17.209 23.7876 17.209H21.8788C21.8386 17.209 21.8057 17.1719 21.8057 17.1262C21.8057 17.0808 21.8386 17.0434 21.8788 17.0434Z" fill="#F6D660" stroke="#434A54" stroke-width="0.05875"/>
<path d="M21.9196 17.2102H23.7453C23.7837 17.2102 23.8152 17.2474 23.8152 17.2929C23.8152 17.3385 23.7837 17.3757 23.7453 17.3757H21.9196C21.8811 17.3757 21.8496 17.3385 21.8496 17.2929C21.8496 17.2474 21.8811 17.2102 21.9196 17.2102Z" fill="#F6D660" stroke="#434A54" stroke-width="0.05875"/>
<path d="M22.509 15.9659L22.6531 15.9661V16.0685H22.7583V15.9638L22.9059 15.9643V16.0686H23.0114V15.9639H23.1592L23.159 16.2003C23.159 16.2374 23.1291 16.2614 23.0945 16.2614H22.5762C22.5414 16.2614 22.5092 16.2335 22.5091 16.1995L22.5088 15.966L22.509 15.9659Z" fill="#F6D660" stroke="#434A54" stroke-width="0.05875"/>
<path d="M23.0521 16.282L23.0847 17.04L22.5791 17.0381L22.6126 16.28L23.0521 16.282Z" fill="#F6D660" stroke="#434A54" stroke-width="0.05875"/>
<path d="M22.4351 16.6333L22.4506 17.0419L21.9658 17.0421L21.9795 16.6333L22.4351 16.6333Z" fill="#F6D660" stroke="#434A54" stroke-width="0.05875"/>
<path d="M23.6812 16.6333L23.6967 17.0419L23.2119 17.0421L23.2256 16.6333L23.6812 16.6333Z" fill="#F6D660" stroke="#434A54" stroke-width="0.05875"/>
<path d="M21.8898 16.3372L22.0308 16.3375V16.44H22.1339V16.3351L22.2783 16.3356V16.4401H22.3816V16.3352L22.5262 16.3354L22.5259 16.5718C22.5259 16.6087 22.4967 16.6327 22.4629 16.6327H21.9557C21.9217 16.6327 21.8901 16.6051 21.89 16.571L21.8896 16.3373L21.8898 16.3372Z" fill="#F6D660" stroke="#434A54" stroke-width="0.05875"/>
<path d="M23.1369 16.3372L23.2778 16.3375V16.44H23.3809V16.3351L23.5254 16.3356V16.4401H23.6287V16.3352L23.7732 16.3354L23.773 16.5718C23.773 16.6087 23.7438 16.6327 23.71 16.6327H23.2028C23.1688 16.6327 23.1372 16.6051 23.1371 16.571L23.1367 16.3373L23.1369 16.3372Z" fill="#F6D660" stroke="#434A54" stroke-width="0.05875"/>
<path d="M22.7833 16.5217C22.7802 16.448 22.8863 16.4472 22.885 16.5217V16.7022H22.7833L22.7833 16.5217Z" fill="#434A54"/>
<path d="M22.1563 16.7837C22.1559 16.7125 22.2546 16.7111 22.2533 16.7837V16.9232H22.1563L22.1563 16.7837Z" fill="#434A54"/>
<path d="M23.4072 16.7837C23.4069 16.7125 23.5056 16.7111 23.5043 16.7837V16.9232H23.4073L23.4072 16.7837Z" fill="#434A54"/>
<path d="M22.3467 23.5881C22.3625 22.9394 22.8228 22.7858 22.8261 22.7835C22.8295 22.7814 23.3233 22.9489 23.3217 23.5941L22.3467 23.5881Z" fill="#F6D660" stroke="#434A54" stroke-width="0.05875"/>
<path d="M21.9502 22.7962L21.8701 23.5417L22.3566 23.5427C22.3613 22.9259 22.8236 22.8233 22.8348 22.8256C22.8452 22.825 23.3035 22.962 23.3157 23.5427H23.8034L23.7153 22.7915L21.9503 22.796L21.9502 22.7962Z" fill="#F6D660" stroke="#434A54" stroke-width="0.05875"/>
<path d="M21.837 23.5446H23.8282C23.8701 23.5446 23.9044 23.5861 23.9044 23.6367C23.9044 23.6873 23.8701 23.7286 23.8282 23.7286H21.837C21.795 23.7286 21.7607 23.6873 21.7607 23.6367C21.7607 23.5861 21.795 23.5446 21.837 23.5446Z" fill="#F6D660" stroke="#434A54" stroke-width="0.05875"/>
<path d="M22.5605 23.5411C22.5627 23.1519 22.8263 23.0417 22.8277 23.0419C22.8278 23.0419 23.1029 23.1555 23.1051 23.5411H22.5605Z" fill="#F6D660" stroke="#434A54" stroke-width="0.05875"/>
<path d="M21.8788 22.4859H23.7876C23.8278 22.4859 23.8608 22.5234 23.8608 22.5687C23.8608 22.6142 23.8278 22.6515 23.7876 22.6515H21.8788C21.8386 22.6515 21.8057 22.6144 21.8057 22.5687C21.8057 22.5234 21.8386 22.4859 21.8788 22.4859Z" fill="#F6D660" stroke="#434A54" stroke-width="0.05875"/>
<path d="M21.9196 22.6528H23.7453C23.7837 22.6528 23.8152 22.69 23.8152 22.7355C23.8152 22.7811 23.7837 22.8183 23.7453 22.8183H21.9196C21.8811 22.8183 21.8496 22.7811 21.8496 22.7355C21.8496 22.69 21.8811 22.6528 21.9196 22.6528Z" fill="#F6D660" stroke="#434A54" stroke-width="0.05875"/>
<path d="M22.509 21.4085L22.6531 21.4087V21.5111H22.7583V21.4064L22.9059 21.4069V21.5112H23.0114V21.4065H23.1592L23.159 21.6429C23.159 21.68 23.1291 21.704 23.0945 21.704H22.5762C22.5414 21.704 22.5092 21.6761 22.5091 21.6421L22.5088 21.4086L22.509 21.4085Z" fill="#F6D660" stroke="#434A54" stroke-width="0.05875"/>
<path d="M23.0521 21.7246L23.0847 22.4826L22.5791 22.4807L22.6126 21.7226L23.0521 21.7246Z" fill="#F6D660" stroke="#434A54" stroke-width="0.05875"/>
<path d="M22.4351 22.0759L22.4506 22.4845L21.9658 22.4847L21.9795 22.0759L22.4351 22.0759Z" fill="#F6D660" stroke="#434A54" stroke-width="0.05875"/>
<path d="M23.6812 22.0759L23.6967 22.4845L23.2119 22.4847L23.2256 22.0759L23.6812 22.0759Z" fill="#F6D660" stroke="#434A54" stroke-width="0.05875"/>
<path d="M21.8898 21.7798L22.0308 21.7801V21.8826H22.1339V21.7777L22.2783 21.7782V21.8827H22.3816V21.7778L22.5262 21.778L22.5259 22.0144C22.5259 22.0513 22.4967 22.0753 22.4629 22.0753H21.9557C21.9217 22.0753 21.8901 22.0477 21.89 22.0136L21.8896 21.7799L21.8898 21.7798Z" fill="#F6D660" stroke="#434A54" stroke-width="0.05875"/>
<path d="M23.1369 21.7798L23.2778 21.7801V21.8826H23.3809V21.7777L23.5254 21.7782V21.8827H23.6287V21.7778L23.7732 21.778L23.773 22.0144C23.773 22.0513 23.7438 22.0753 23.71 22.0753H23.2028C23.1688 22.0753 23.1372 22.0477 23.1371 22.0136L23.1367 21.7799L23.1369 21.7798Z" fill="#F6D660" stroke="#434A54" stroke-width="0.05875"/>
<path d="M22.7833 21.9643C22.7802 21.8906 22.8863 21.8898 22.885 21.9643V22.1448H22.7833L22.7833 21.9643Z" fill="#434A54"/>
<path d="M22.1563 22.2263C22.1559 22.1551 22.2546 22.1536 22.2533 22.2263V22.3658H22.1563L22.1563 22.2263Z" fill="#434A54"/>
<path d="M23.4072 22.2263C23.4069 22.1551 23.5056 22.1536 23.5043 22.2263V22.3658H23.4073L23.4072 22.2263Z" fill="#434A54"/>
<path d="M24.4694 29.2532C24.0202 28.7849 24.2356 28.35 24.2363 28.3461C24.2371 28.3422 24.704 28.1098 25.1606 28.5656L24.4694 29.2532Z" fill="#F6D660" stroke="#434A54" stroke-width="0.05875"/>
<path d="M23.6271 28.977L24.0997 29.5592L24.4432 29.2147C24.0089 28.7768 24.2618 28.3764 24.2713 28.3701C24.2782 28.3623 24.6983 28.1336 25.119 28.5341L25.4627 28.188L24.8675 27.7212L23.627 28.9769L23.6271 28.977Z" fill="#F6D660" stroke="#434A54" stroke-width="0.05875"/>
<path d="M24.0791 29.5844L25.4821 28.1715C25.5117 28.1417 25.5653 28.1466 25.6012 28.1823C25.6371 28.2179 25.6422 28.2713 25.6126 28.3011L24.2097 29.714C24.1801 29.7438 24.1266 29.7391 24.0908 29.7035C24.0548 29.6678 24.0496 29.6142 24.0791 29.5844Z" fill="#F6D660" stroke="#434A54" stroke-width="0.05875"/>
<path d="M24.5866 29.0684C24.312 28.7926 24.4196 28.5279 24.4207 28.5271C24.4207 28.527 24.6952 28.4118 24.9703 28.6819L24.5866 29.0684Z" fill="#F6D660" stroke="#434A54" stroke-width="0.05875"/>
<path d="M23.3572 28.8085L24.7022 27.454C24.7305 27.4255 24.7803 27.4285 24.8125 27.4604C24.8447 27.4925 24.848 27.5422 24.8197 27.5707L23.4747 28.9252C23.4464 28.9537 23.3968 28.9509 23.3644 28.9187C23.3322 28.8868 23.3289 28.837 23.3572 28.8085Z" fill="#F6D660" stroke="#434A54" stroke-width="0.05875"/>
<path d="M23.5044 28.8977L24.7908 27.6022C24.8179 27.5749 24.8665 27.5788 24.8987 27.6108C24.9311 27.643 24.9353 27.6915 24.9082 27.7188L23.6218 29.0143C23.5947 29.0416 23.5461 29.0377 23.5138 29.0056C23.4815 28.9736 23.4773 28.925 23.5044 28.8977Z" fill="#F6D660" stroke="#434A54" stroke-width="0.05875"/>
<path d="M23.0367 27.6024L23.1385 27.5003L23.2111 27.5724L23.2852 27.4978L23.211 27.424L23.3153 27.3196L23.3893 27.393L23.4636 27.3182L23.3894 27.2444L23.4935 27.1396L23.661 27.3063C23.6874 27.3324 23.6834 27.3705 23.659 27.3951L23.2938 27.7629C23.2693 27.7876 23.2269 27.7908 23.2027 27.7669L23.0367 27.6026L23.0367 27.6024Z" fill="#F6D660" stroke="#434A54" stroke-width="0.05875"/>
<path d="M23.6433 27.4399L24.2041 27.9509L23.8466 28.3084L23.3322 27.7504L23.6433 27.4399Z" fill="#F6D660" stroke="#434A54" stroke-width="0.05875"/>
<path d="M23.4576 28.1252L23.7585 28.4021L23.4171 28.7463L23.1366 28.4485L23.4576 28.1252Z" fill="#F6D660" stroke="#434A54" stroke-width="0.05875"/>
<path d="M24.3365 27.2406L24.6374 27.5176L24.296 27.8617L24.0155 27.5639L24.3365 27.2406Z" fill="#F6D660" stroke="#434A54" stroke-width="0.05875"/>
<path d="M22.8639 28.3034L22.9634 28.2036L23.0361 28.2759L23.1088 28.2027L23.0344 28.1288L23.1365 28.0266L23.2106 28.1002L23.2834 28.0269L23.209 27.953L23.311 27.8506L23.4786 28.0173C23.5048 28.0433 23.5012 28.081 23.4774 28.105L23.12 28.4649C23.0961 28.489 23.0542 28.492 23.0299 28.468L22.8638 28.3036L22.8639 28.3034Z" fill="#F6D660" stroke="#434A54" stroke-width="0.05875"/>
<path d="M23.7418 27.4188L23.8413 27.3191L23.9141 27.3913L23.9867 27.3181L23.9123 27.2442L24.0144 27.1421L24.0885 27.2157L24.1613 27.1424L24.0869 27.0685L24.1889 26.9661L24.3565 27.1328C24.3827 27.1588 24.3792 27.1964 24.3554 27.2204L23.9979 27.5803C23.974 27.6045 23.9321 27.6074 23.9078 27.5834L23.7418 27.419L23.7418 27.4188Z" fill="#F6D660" stroke="#434A54" stroke-width="0.05875"/>
<path d="M23.6235 27.7997C23.569 27.75 23.6432 27.6741 23.6952 27.7275L23.8233 27.8547L23.7516 27.9269L23.6235 27.7997Z" fill="#434A54"/>
<path d="M23.3684 28.4287C23.3176 28.3788 23.3861 28.3078 23.4368 28.3598L23.5357 28.4581L23.4674 28.527L23.3684 28.4287Z" fill="#434A54"/>
<path d="M24.2492 27.5415C24.1984 27.4916 24.267 27.4206 24.3176 27.4726L24.4166 27.5709L24.3482 27.6398L24.2492 27.5415Z" fill="#434A54"/>
<path d="M27.7188 18.1455C27.7346 17.4968 28.1949 17.3432 28.1982 17.3409C28.2015 17.3388 28.6954 17.5063 28.6938 18.1515L27.7188 18.1455Z" fill="#F6D660" stroke="#434A54" stroke-width="0.05875"/>
<path d="M27.3223 17.3536L27.2422 18.0991L27.7287 18.1001C27.7334 17.4833 28.1956 17.3807 28.2068 17.383C28.2173 17.3824 28.6755 17.5194 28.6877 18.1001H29.1755L29.0874 17.3489L27.3223 17.3534L27.3223 17.3536Z" fill="#F6D660" stroke="#434A54" stroke-width="0.05875"/>
<path d="M27.2091 18.1021H29.2002C29.2422 18.1021 29.2765 18.1435 29.2765 18.1942C29.2765 18.2447 29.2422 18.286 29.2002 18.286H27.2091C27.1671 18.286 27.1328 18.2447 27.1328 18.1942C27.1328 18.1435 27.1671 18.1021 27.2091 18.1021Z" fill="#F6D660" stroke="#434A54" stroke-width="0.05875"/>
<path d="M27.9326 18.0985C27.9348 17.7093 28.1984 17.5991 28.1998 17.5993C28.1999 17.5993 28.475 17.7129 28.4772 18.0985H27.9326Z" fill="#F6D660" stroke="#434A54" stroke-width="0.05875"/>
<path d="M27.2509 17.0434H29.1597C29.1999 17.0434 29.2328 17.0808 29.2328 17.1262C29.2328 17.1717 29.1999 17.209 29.1597 17.209H27.2509C27.2107 17.209 27.1777 17.1719 27.1777 17.1262C27.1777 17.0808 27.2107 17.0434 27.2509 17.0434Z" fill="#F6D660" stroke="#434A54" stroke-width="0.05875"/>
<path d="M27.2916 17.2102H29.1173C29.1558 17.2102 29.1873 17.2474 29.1873 17.2929C29.1873 17.3385 29.1558 17.3757 29.1173 17.3757H27.2916C27.2532 17.3757 27.2217 17.3385 27.2217 17.2929C27.2217 17.2474 27.2532 17.2102 27.2916 17.2102Z" fill="#F6D660" stroke="#434A54" stroke-width="0.05875"/>
<path d="M27.881 15.9659L28.0252 15.9661V16.0685H28.1304V15.9638L28.278 15.9643V16.0686H28.3835V15.9639H28.5313L28.531 16.2003C28.531 16.2374 28.5012 16.2614 28.4666 16.2614H27.9483C27.9134 16.2614 27.8813 16.2335 27.8812 16.1995L27.8809 15.966L27.881 15.9659Z" fill="#F6D660" stroke="#434A54" stroke-width="0.05875"/>
<path d="M28.4242 16.282L28.4568 17.04L27.9512 17.0381L27.9846 16.28L28.4242 16.282Z" fill="#F6D660" stroke="#434A54" stroke-width="0.05875"/>
<path d="M27.8072 16.6333L27.8226 17.0419L27.3379 17.0421L27.3516 16.6333L27.8072 16.6333Z" fill="#F6D660" stroke="#434A54" stroke-width="0.05875"/>
<path d="M29.0533 16.6333L29.0687 17.0419L28.584 17.0421L28.5977 16.6333L29.0533 16.6333Z" fill="#F6D660" stroke="#434A54" stroke-width="0.05875"/>
<path d="M27.2619 16.3372L27.4028 16.3375V16.44H27.5059V16.3351L27.6504 16.3356V16.4401H27.7537V16.3352L27.8982 16.3354L27.898 16.5718C27.898 16.6087 27.8688 16.6327 27.835 16.6327H27.3278C27.2938 16.6327 27.2622 16.6051 27.2621 16.571L27.2617 16.3373L27.2619 16.3372Z" fill="#F6D660" stroke="#434A54" stroke-width="0.05875"/>
<path d="M28.509 16.3372L28.6499 16.3375V16.44H28.753V16.3351L28.8975 16.3356V16.4401H29.0008V16.3352L29.1453 16.3354L29.1451 16.5718C29.1451 16.6087 29.1159 16.6327 29.0821 16.6327H28.5748C28.5409 16.6327 28.5092 16.6051 28.5091 16.571L28.5088 16.3373L28.509 16.3372Z" fill="#F6D660" stroke="#434A54" stroke-width="0.05875"/>
<path d="M28.1553 16.5217C28.1522 16.448 28.2583 16.4472 28.2571 16.5217V16.7022H28.1553L28.1553 16.5217Z" fill="#434A54"/>
<path d="M27.5283 16.7837C27.528 16.7125 27.6267 16.7111 27.6254 16.7837V16.9232H27.5284L27.5283 16.7837Z" fill="#434A54"/>
<path d="M28.7793 16.7837C28.7789 16.7125 28.8776 16.7111 28.8764 16.7837V16.9232H28.7793L28.7793 16.7837Z" fill="#434A54"/>
<path d="M34.0283 18.1455C34.0125 17.4968 33.5522 17.3432 33.5489 17.3409C33.5455 17.3388 33.0517 17.5063 33.0533 18.1515L34.0283 18.1455Z" fill="#F6D660" stroke="#434A54" stroke-width="0.05875"/>
<path d="M34.4248 17.3536L34.5049 18.0991L34.0184 18.1001C34.0137 17.4833 33.5514 17.3807 33.5402 17.383C33.5298 17.3824 33.0715 17.5194 33.0593 18.1001H32.5716L32.6597 17.3489L34.4247 17.3534L34.4248 17.3536Z" fill="#F6D660" stroke="#434A54" stroke-width="0.05875"/>
<path d="M34.538 18.1021H32.5468C32.5049 18.1021 32.4706 18.1435 32.4706 18.1942C32.4706 18.2447 32.5049 18.286 32.5468 18.286H34.538C34.58 18.286 34.6143 18.2447 34.6143 18.1942C34.6143 18.1435 34.58 18.1021 34.538 18.1021Z" fill="#F6D660" stroke="#434A54" stroke-width="0.05875"/>
<path d="M33.8145 18.0985C33.8123 17.7093 33.5487 17.5991 33.5473 17.5993C33.5472 17.5993 33.2721 17.7129 33.2699 18.0985H33.8145Z" fill="#F6D660" stroke="#434A54" stroke-width="0.05875"/>
<path d="M34.4962 17.0434H32.5874C32.5472 17.0434 32.5142 17.0808 32.5142 17.1262C32.5142 17.1717 32.5472 17.209 32.5874 17.209H34.4962C34.5364 17.209 34.5693 17.1719 34.5693 17.1262C34.5693 17.0808 34.5364 17.0434 34.4962 17.0434Z" fill="#F6D660" stroke="#434A54" stroke-width="0.05875"/>
<path d="M34.4554 17.2102H32.6297C32.5913 17.2102 32.5598 17.2474 32.5598 17.2929C32.5598 17.3385 32.5913 17.3757 32.6297 17.3757H34.4554C34.4939 17.3757 34.5254 17.3385 34.5254 17.2929C34.5254 17.2474 34.4939 17.2102 34.4554 17.2102Z" fill="#F6D660" stroke="#434A54" stroke-width="0.05875"/>
<path d="M33.866 15.9659L33.7219 15.9661V16.0685H33.6167V15.9638L33.4691 15.9643V16.0686H33.3636V15.9639H33.2158L33.216 16.2003C33.216 16.2374 33.2459 16.2614 33.2805 16.2614H33.7988C33.8336 16.2614 33.8658 16.2335 33.8659 16.1995L33.8662 15.966L33.866 15.9659Z" fill="#F6D660" stroke="#434A54" stroke-width="0.05875"/>
<path d="M33.3229 16.282L33.2903 17.04L33.7959 17.0381L33.7624 16.28L33.3229 16.282Z" fill="#F6D660" stroke="#434A54" stroke-width="0.05875"/>
<path d="M33.9399 16.6333L33.9244 17.0419L34.4092 17.0421L34.3955 16.6333L33.9399 16.6333Z" fill="#F6D660" stroke="#434A54" stroke-width="0.05875"/>
<path d="M32.6938 16.6333L32.6783 17.0419L33.1631 17.0421L33.1494 16.6333L32.6938 16.6333Z" fill="#F6D660" stroke="#434A54" stroke-width="0.05875"/>
<path d="M34.4852 16.3372L34.3442 16.3375V16.44H34.2411V16.3351L34.0967 16.3356V16.4401H33.9934V16.3352L33.8488 16.3354L33.8491 16.5718C33.8491 16.6087 33.8783 16.6327 33.9121 16.6327H34.4193C34.4533 16.6327 34.4849 16.6051 34.485 16.571L34.4854 16.3373L34.4852 16.3372Z" fill="#F6D660" stroke="#434A54" stroke-width="0.05875"/>
<path d="M33.2381 16.3372L33.0972 16.3375V16.44H32.9941V16.3351L32.8496 16.3356V16.4401H32.7463V16.3352L32.6018 16.3354L32.602 16.5718C32.602 16.6087 32.6312 16.6327 32.665 16.6327H33.1722C33.2062 16.6327 33.2378 16.6051 33.2379 16.571L33.2383 16.3373L33.2381 16.3372Z" fill="#F6D660" stroke="#434A54" stroke-width="0.05875"/>
<path d="M33.5917 16.5217C33.5948 16.448 33.4887 16.4472 33.49 16.5217V16.7022H33.5917L33.5917 16.5217Z" fill="#434A54"/>
<path d="M34.2187 16.7837C34.2191 16.7125 34.1204 16.7111 34.1217 16.7837V16.9232H34.2187L34.2187 16.7837Z" fill="#434A54"/>
<path d="M32.9678 16.7837C32.9681 16.7125 32.8694 16.7111 32.8707 16.7837V16.9232H32.9677L32.9678 16.7837Z" fill="#434A54"/>
<path d="M34.0283 23.5881C34.0125 22.9394 33.5522 22.7858 33.5489 22.7835C33.5455 22.7814 33.0517 22.9489 33.0533 23.5941L34.0283 23.5881Z" fill="#F6D660" stroke="#434A54" stroke-width="0.05875"/>
<path d="M34.4248 22.7962L34.5049 23.5417L34.0184 23.5427C34.0137 22.9259 33.5514 22.8233 33.5402 22.8256C33.5298 22.825 33.0715 22.962 33.0593 23.5427H32.5716L32.6597 22.7915L34.4247 22.796L34.4248 22.7962Z" fill="#F6D660" stroke="#434A54" stroke-width="0.05875"/>
<path d="M34.538 23.5446H32.5468C32.5049 23.5446 32.4706 23.5861 32.4706 23.6367C32.4706 23.6873 32.5049 23.7286 32.5468 23.7286H34.538C34.58 23.7286 34.6143 23.6873 34.6143 23.6367C34.6143 23.5861 34.58 23.5446 34.538 23.5446Z" fill="#F6D660" stroke="#434A54" stroke-width="0.05875"/>
<path d="M33.8145 23.5411C33.8123 23.1519 33.5487 23.0417 33.5473 23.0419C33.5472 23.0419 33.2721 23.1555 33.2699 23.5411H33.8145Z" fill="#F6D660" stroke="#434A54" stroke-width="0.05875"/>
<path d="M34.4962 22.4859H32.5874C32.5472 22.4859 32.5142 22.5234 32.5142 22.5687C32.5142 22.6142 32.5472 22.6515 32.5874 22.6515H34.4962C34.5364 22.6515 34.5693 22.6144 34.5693 22.5687C34.5693 22.5234 34.5364 22.4859 34.4962 22.4859Z" fill="#F6D660" stroke="#434A54" stroke-width="0.05875"/>
<path d="M34.4554 22.6528H32.6297C32.5913 22.6528 32.5598 22.69 32.5598 22.7355C32.5598 22.7811 32.5913 22.8183 32.6297 22.8183H34.4554C34.4939 22.8183 34.5254 22.7811 34.5254 22.7355C34.5254 22.69 34.4939 22.6528 34.4554 22.6528Z" fill="#F6D660" stroke="#434A54" stroke-width="0.05875"/>
<path d="M33.866 21.4085L33.7219 21.4087V21.5111H33.6167V21.4064L33.4691 21.4069V21.5112H33.3636V21.4065H33.2158L33.216 21.6429C33.216 21.68 33.2459 21.704 33.2805 21.704H33.7988C33.8336 21.704 33.8658 21.6761 33.8659 21.6421L33.8662 21.4086L33.866 21.4085Z" fill="#F6D660" stroke="#434A54" stroke-width="0.05875"/>
<path d="M33.3229 21.7246L33.2903 22.4826L33.7959 22.4807L33.7624 21.7226L33.3229 21.7246Z" fill="#F6D660" stroke="#434A54" stroke-width="0.05875"/>
<path d="M33.9399 22.0759L33.9244 22.4845L34.4092 22.4847L34.3955 22.0759L33.9399 22.0759Z" fill="#F6D660" stroke="#434A54" stroke-width="0.05875"/>
<path d="M32.6938 22.0759L32.6783 22.4845L33.1631 22.4847L33.1494 22.0759L32.6938 22.0759Z" fill="#F6D660" stroke="#434A54" stroke-width="0.05875"/>
<path d="M34.4852 21.7798L34.3442 21.7801V21.8826H34.2411V21.7777L34.0967 21.7782V21.8827H33.9934V21.7778L33.8488 21.778L33.8491 22.0144C33.8491 22.0513 33.8783 22.0753 33.9121 22.0753H34.4193C34.4533 22.0753 34.4849 22.0477 34.485 22.0136L34.4854 21.7799L34.4852 21.7798Z" fill="#F6D660" stroke="#434A54" stroke-width="0.05875"/>
<path d="M33.2381 21.7798L33.0972 21.7801V21.8826H32.9941V21.7777L32.8496 21.7782V21.8827H32.7463V21.7778L32.6018 21.778L32.602 22.0144C32.602 22.0513 32.6312 22.0753 32.665 22.0753H33.1722C33.2062 22.0753 33.2378 22.0477 33.2379 22.0136L33.2383 21.7799L33.2381 21.7798Z" fill="#F6D660" stroke="#434A54" stroke-width="0.05875"/>
<path d="M33.5917 21.9643C33.5948 21.8906 33.4887 21.8898 33.49 21.9643V22.1448H33.5917L33.5917 21.9643Z" fill="#434A54"/>
<path d="M34.2187 22.2263C34.2191 22.1551 34.1204 22.1536 34.1217 22.2263V22.3658H34.2187L34.2187 22.2263Z" fill="#434A54"/>
<path d="M32.9678 22.2263C32.9681 22.1551 32.8694 22.1536 32.8707 22.2263V22.3658H32.9677L32.9678 22.2263Z" fill="#434A54"/>
<path d="M31.9056 29.2532C32.3548 28.7849 32.1394 28.35 32.1387 28.3461C32.1379 28.3422 31.671 28.1098 31.2144 28.5656L31.9056 29.2532Z" fill="#F6D660" stroke="#434A54" stroke-width="0.05875"/>
<path d="M32.7479 28.977L32.2753 29.5591L31.9318 29.2146C32.3661 28.7767 32.1132 28.3764 32.1037 28.3701C32.0968 28.3622 31.6767 28.1336 31.256 28.5341L30.9123 28.188L31.5075 27.7212L32.748 28.9768L32.7479 28.977Z" fill="#F6D660" stroke="#434A54" stroke-width="0.05875"/>
<path d="M32.2959 29.5844L30.8929 28.1715C30.8633 28.1417 30.8097 28.1466 30.7738 28.1823C30.7379 28.2179 30.7328 28.2713 30.7624 28.3011L32.1653 29.714C32.1949 29.7438 32.2484 29.7391 32.2842 29.7035C32.3202 29.6678 32.3254 29.6142 32.2959 29.5844Z" fill="#F6D660" stroke="#434A54" stroke-width="0.05875"/>
<path d="M31.7884 29.0684C32.063 28.7926 31.9554 28.5279 31.9543 28.5271C31.9543 28.527 31.6798 28.4118 31.4047 28.6819L31.7884 29.0684Z" fill="#F6D660" stroke="#434A54" stroke-width="0.05875"/>
<path d="M33.0178 28.8085L31.6728 27.454C31.6445 27.4255 31.5947 27.4285 31.5625 27.4604C31.5303 27.4925 31.527 27.5422 31.5553 27.5707L32.9003 28.9252C32.9286 28.9537 32.9782 28.9509 33.0106 28.9187C33.0428 28.8868 33.0461 28.837 33.0178 28.8085Z" fill="#F6D660" stroke="#434A54" stroke-width="0.05875"/>
<path d="M32.8706 28.8977L31.5842 27.6022C31.5571 27.5749 31.5085 27.5788 31.4763 27.6108C31.4439 27.643 31.4397 27.6915 31.4668 27.7188L32.7532 29.0143C32.7803 29.0416 32.8289 29.0377 32.8612 29.0056C32.8935 28.9736 32.8977 28.925 32.8706 28.8977Z" fill="#F6D660" stroke="#434A54" stroke-width="0.05875"/>
<path d="M33.3383 27.6024L33.2365 27.5003L33.1639 27.5724L33.0898 27.4978L33.164 27.424L33.0597 27.3196L32.9857 27.393L32.9114 27.3182L32.9856 27.2444L32.8815 27.1396L32.714 27.3063C32.6876 27.3324 32.6916 27.3705 32.716 27.3951L33.0812 27.7629C33.1057 27.7876 33.1481 27.7908 33.1723 27.7669L33.3383 27.6026L33.3383 27.6024Z" fill="#F6D660" stroke="#434A54" stroke-width="0.05875"/>
<path d="M32.7317 27.4399L32.1709 27.9509L32.5284 28.3084L33.0428 27.7504L32.7317 27.4399Z" fill="#F6D660" stroke="#434A54" stroke-width="0.05875"/>
<path d="M32.9174 28.1252L32.6165 28.4021L32.9579 28.7463L33.2384 28.4485L32.9174 28.1252Z" fill="#F6D660" stroke="#434A54" stroke-width="0.05875"/>
<path d="M32.0385 27.2406L31.7376 27.5176L32.079 27.8617L32.3595 27.5639L32.0385 27.2406Z" fill="#F6D660" stroke="#434A54" stroke-width="0.05875"/>
<path d="M33.5111 28.3034L33.4116 28.2036L33.3389 28.2758L33.2662 28.2027L33.3406 28.1288L33.2385 28.0266L33.1644 28.1002L33.0916 28.0269L33.166 27.953L33.064 27.8506L32.8964 28.0173C32.8702 28.0433 32.8738 28.081 32.8976 28.105L33.255 28.4649C33.2789 28.489 33.3208 28.4919 33.3451 28.468L33.5112 28.3036L33.5111 28.3034Z" fill="#F6D660" stroke="#434A54" stroke-width="0.05875"/>
<path d="M32.6332 27.4188L32.5337 27.3191L32.4609 27.3913L32.3883 27.3181L32.4627 27.2442L32.3606 27.1421L32.2865 27.2157L32.2137 27.1424L32.2881 27.0685L32.1861 26.9661L32.0185 27.1328C31.9923 27.1588 31.9958 27.1964 32.0196 27.2204L32.3771 27.5803C32.401 27.6045 32.4429 27.6074 32.4672 27.5834L32.6332 27.419L32.6332 27.4188Z" fill="#F6D660" stroke="#434A54" stroke-width="0.05875"/>
<path d="M32.7515 27.7997C32.806 27.75 32.7318 27.6741 32.6798 27.7275L32.5517 27.8547L32.6234 27.9269L32.7515 27.7997Z" fill="#434A54"/>
<path d="M33.0066 28.4287C33.0574 28.3788 32.9889 28.3078 32.9382 28.3598L32.8393 28.4581L32.9076 28.527L33.0066 28.4287Z" fill="#434A54"/>
<path d="M32.1258 27.5415C32.1766 27.4916 32.108 27.4206 32.0574 27.4726L31.9584 27.5709L32.0268 27.6398L32.1258 27.5415Z" fill="#434A54"/>
<path d="M27.335 23.7827V23.7833C27.335 24.0432 27.4348 24.28 27.5949 24.4518C27.7553 24.6241 27.9762 24.7312 28.2179 24.7312C28.4608 24.7312 28.6813 24.6249 28.841 24.4533C29.0006 24.2819 29.0997 24.0453 29.0997 23.7843V22.5191L27.3382 22.5176L27.335 23.7827Z" fill="#4758A9"/>
<path d="M27.7391 23.1735C27.8355 23.1735 27.9137 23.0953 27.9137 22.9989C27.9137 22.9024 27.8355 22.8242 27.7391 22.8242C27.6426 22.8242 27.5645 22.9024 27.5645 22.9989C27.5645 23.0953 27.6426 23.1735 27.7391 23.1735Z" fill="#F5F7FA"/>
<path d="M28.7166 23.1743C28.813 23.1743 28.8912 23.0961 28.8912 22.9997C28.8912 22.9033 28.813 22.8251 28.7166 22.8251C28.6202 22.8251 28.542 22.9033 28.542 22.9997C28.542 23.0961 28.6202 23.1743 28.7166 23.1743Z" fill="#F5F7FA"/>
<path d="M28.2264 23.6435C28.3228 23.6435 28.401 23.5653 28.401 23.4689C28.401 23.3724 28.3228 23.2943 28.2264 23.2943C28.1299 23.2943 28.0518 23.3724 28.0518 23.4689C28.0518 23.5653 28.1299 23.6435 28.2264 23.6435Z" fill="#F5F7FA"/>
<path d="M27.7391 24.1347C27.8355 24.1347 27.9137 24.0566 27.9137 23.9601C27.9137 23.8637 27.8355 23.7855 27.7391 23.7855C27.6426 23.7855 27.5645 23.8637 27.5645 23.9601C27.5645 24.0566 27.6426 24.1347 27.7391 24.1347Z" fill="#F5F7FA"/>
<path d="M28.7156 24.1335C28.8121 24.1335 28.8902 24.0553 28.8902 23.9588C28.8902 23.8624 28.8121 23.7842 28.7156 23.7842C28.6192 23.7842 28.541 23.8624 28.541 23.9588C28.541 24.0553 28.6192 24.1335 28.7156 24.1335Z" fill="#F5F7FA"/>
<path d="M27.335 20.7258V20.7264C27.335 20.9863 27.4348 21.2231 27.5949 21.3949C27.7553 21.5673 27.9762 21.6743 28.2179 21.6743C28.4608 21.6743 28.6813 21.568 28.841 21.3964C29.0006 21.225 29.0997 20.9884 29.0997 20.7274V19.4622L27.3382 19.4608L27.335 20.7258Z" fill="#4758A9"/>
<path d="M27.7391 20.1166C27.8355 20.1166 27.9137 20.0384 27.9137 19.942C27.9137 19.8455 27.8355 19.7674 27.7391 19.7674C27.6426 19.7674 27.5645 19.8455 27.5645 19.942C27.5645 20.0384 27.6426 20.1166 27.7391 20.1166Z" fill="#F5F7FA"/>
<path d="M28.7166 20.1174C28.813 20.1174 28.8912 20.0392 28.8912 19.9428C28.8912 19.8464 28.813 19.7682 28.7166 19.7682C28.6202 19.7682 28.542 19.8464 28.542 19.9428C28.542 20.0392 28.6202 20.1174 28.7166 20.1174Z" fill="#F5F7FA"/>
<path d="M28.2264 20.5866C28.3228 20.5866 28.401 20.5084 28.401 20.412C28.401 20.3156 28.3228 20.2374 28.2264 20.2374C28.1299 20.2374 28.0518 20.3156 28.0518 20.412C28.0518 20.5084 28.1299 20.5866 28.2264 20.5866Z" fill="#F5F7FA"/>
<path d="M27.7391 21.0779C27.8355 21.0779 27.9137 20.9997 27.9137 20.9033C27.9137 20.8068 27.8355 20.7287 27.7391 20.7287C27.6426 20.7287 27.5645 20.8068 27.5645 20.9033C27.5645 20.9997 27.6426 21.0779 27.7391 21.0779Z" fill="#F5F7FA"/>
<path d="M28.7156 21.0766C28.8121 21.0766 28.8902 20.9984 28.8902 20.902C28.8902 20.8055 28.8121 20.7274 28.7156 20.7274C28.6192 20.7274 28.541 20.8055 28.541 20.902C28.541 20.9984 28.6192 21.0766 28.7156 21.0766Z" fill="#F5F7FA"/>
<path d="M24.8907 23.7827V23.7833C24.8907 24.0432 24.9905 24.28 25.1506 24.4518C25.311 24.6241 25.5319 24.7312 25.7736 24.7312C26.0165 24.7312 26.237 24.6248 26.3966 24.4532C26.5562 24.2818 26.6554 24.0453 26.6554 23.7843V22.5191L24.8938 22.5176L24.8907 23.7827Z" fill="#4758A9"/>
<path d="M25.2947 23.1734C25.3912 23.1734 25.4693 23.0953 25.4693 22.9988C25.4693 22.9024 25.3912 22.8242 25.2947 22.8242C25.1983 22.8242 25.1201 22.9024 25.1201 22.9988C25.1201 23.0953 25.1983 23.1734 25.2947 23.1734Z" fill="#F5F7FA"/>
<path d="M26.2723 23.1743C26.3687 23.1743 26.4469 23.0961 26.4469 22.9997C26.4469 22.9032 26.3687 22.8251 26.2723 22.8251C26.1758 22.8251 26.0977 22.9032 26.0977 22.9997C26.0977 23.0961 26.1758 23.1743 26.2723 23.1743Z" fill="#F5F7FA"/>
<path d="M25.782 23.6435C25.8785 23.6435 25.9566 23.5653 25.9566 23.4689C25.9566 23.3724 25.8785 23.2943 25.782 23.2943C25.6856 23.2943 25.6074 23.3724 25.6074 23.4689C25.6074 23.5653 25.6856 23.6435 25.782 23.6435Z" fill="#F5F7FA"/>
<path d="M25.2947 24.1347C25.3912 24.1347 25.4693 24.0566 25.4693 23.9601C25.4693 23.8637 25.3912 23.7855 25.2947 23.7855C25.1983 23.7855 25.1201 23.8637 25.1201 23.9601C25.1201 24.0566 25.1983 24.1347 25.2947 24.1347Z" fill="#F5F7FA"/>
<path d="M26.2713 24.1334C26.3677 24.1334 26.4459 24.0553 26.4459 23.9588C26.4459 23.8624 26.3677 23.7842 26.2713 23.7842C26.1749 23.7842 26.0967 23.8624 26.0967 23.9588C26.0967 24.0553 26.1749 24.1334 26.2713 24.1334Z" fill="#F5F7FA"/>
<path d="M29.7725 23.7827V23.7833C29.7725 24.0432 29.8723 24.28 30.0324 24.4518C30.1928 24.6241 30.4137 24.7312 30.6554 24.7312C30.8983 24.7312 31.1188 24.6248 31.2785 24.4532C31.4381 24.2818 31.5372 24.0453 31.5372 23.7843V22.5191L29.7757 22.5176L29.7725 23.7827Z" fill="#4758A9"/>
<path d="M30.1766 23.1734C30.273 23.1734 30.3512 23.0953 30.3512 22.9988C30.3512 22.9024 30.273 22.8242 30.1766 22.8242C30.0801 22.8242 30.002 22.9024 30.002 22.9988C30.002 23.0953 30.0801 23.1734 30.1766 23.1734Z" fill="#F5F7FA"/>
<path d="M31.1541 23.1743C31.2505 23.1743 31.3287 23.0961 31.3287 22.9997C31.3287 22.9032 31.2505 22.8251 31.1541 22.8251C31.0577 22.8251 30.9795 22.9032 30.9795 22.9997C30.9795 23.0961 31.0577 23.1743 31.1541 23.1743Z" fill="#F5F7FA"/>
<path d="M30.6639 23.6435C30.7603 23.6435 30.8385 23.5653 30.8385 23.4689C30.8385 23.3724 30.7603 23.2943 30.6639 23.2943C30.5674 23.2943 30.4893 23.3724 30.4893 23.4689C30.4893 23.5653 30.5674 23.6435 30.6639 23.6435Z" fill="#F5F7FA"/>
<path d="M30.1766 24.1347C30.273 24.1347 30.3512 24.0566 30.3512 23.9601C30.3512 23.8637 30.273 23.7855 30.1766 23.7855C30.0801 23.7855 30.002 23.8637 30.002 23.9601C30.002 24.0566 30.0801 24.1347 30.1766 24.1347Z" fill="#F5F7FA"/>
<path d="M31.1531 24.1334C31.2496 24.1334 31.3277 24.0553 31.3277 23.9588C31.3277 23.8624 31.2496 23.7842 31.1531 23.7842C31.0567 23.7842 30.9785 23.8624 30.9785 23.9588C30.9785 24.0553 31.0567 24.1334 31.1531 24.1334Z" fill="#F5F7FA"/>
<path d="M27.335 26.8123V26.8129C27.335 27.0728 27.4348 27.3096 27.5949 27.4814C27.7553 27.6537 27.9762 27.7608 28.2179 27.7608C28.4608 27.7608 28.6813 27.6545 28.841 27.4828C29.0006 27.3114 29.0997 27.0749 29.0997 26.8139V25.5487L27.3382 25.5472L27.335 26.8123Z" fill="#4758A9"/>
<path d="M27.7391 26.2031C27.8355 26.2031 27.9137 26.1249 27.9137 26.0285C27.9137 25.932 27.8355 25.8539 27.7391 25.8539C27.6426 25.8539 27.5645 25.932 27.5645 26.0285C27.5645 26.1249 27.6426 26.2031 27.7391 26.2031Z" fill="#F5F7FA"/>
<path d="M28.7166 26.2039C28.813 26.2039 28.8912 26.1257 28.8912 26.0293C28.8912 25.9329 28.813 25.8547 28.7166 25.8547C28.6202 25.8547 28.542 25.9329 28.542 26.0293C28.542 26.1257 28.6202 26.2039 28.7166 26.2039Z" fill="#F5F7FA"/>
<path d="M28.2264 26.6731C28.3228 26.6731 28.401 26.5949 28.401 26.4985C28.401 26.402 28.3228 26.3239 28.2264 26.3239C28.1299 26.3239 28.0518 26.402 28.0518 26.4985C28.0518 26.5949 28.1299 26.6731 28.2264 26.6731Z" fill="#F5F7FA"/>
<path d="M27.7391 27.1643C27.8355 27.1643 27.9137 27.0862 27.9137 26.9897C27.9137 26.8933 27.8355 26.8151 27.7391 26.8151C27.6426 26.8151 27.5645 26.8933 27.5645 26.9897C27.5645 27.0862 27.6426 27.1643 27.7391 27.1643Z" fill="#F5F7FA"/>
<path d="M28.7156 27.163C28.8121 27.163 28.8902 27.0849 28.8902 26.9884C28.8902 26.892 28.8121 26.8138 28.7156 26.8138C28.6192 26.8138 28.541 26.892 28.541 26.9884C28.541 27.0849 28.6192 27.163 28.7156 27.163Z" fill="#F5F7FA"/>
</svg>
